<?xml version="1.0" encoding="UTF-8"?> <svg xmlns="http://www.w3.org/2000/svg" width="68" height="68" viewBox="0 0 68 68"><g fill="none" fill-rule="nonzero"><path fill="#002060" d="M68 0H0v46.065h21.935v10.967h-8.774v5.484A5.49 5.49 0 0 0 18.645 68H58.13a5.49 5.49 0 0 0 5.484-5.484V46.065H68V0zm-2.194 2.194v6.58H2.194v-6.58h63.612zm-43.87 24.129h-5.03l-6.608-6.608a9.814 9.814 0 0 1 6.154-2.167c1.976 0 3.86.58 5.483 1.67v7.105zm-13.19-5.058l6.155 6.154-6.154 6.154A9.814 9.814 0 0 1 6.58 27.42c0-2.327.813-4.465 2.166-6.154zm8.16 7.251h5.03v7.104a9.778 9.778 0 0 1-5.484 1.67 9.814 9.814 0 0 1-6.154-2.166l6.608-6.608zm1.74 37.29a3.294 3.294 0 0 1-3.291-3.29v-3.29h37.29v3.29c0 1.234.41 2.374 1.1 3.29h-35.1zm20.838-8.774V43.871h17.548v17.548H54.84v-4.387H39.484zm21.935 5.484a3.294 3.294 0 0 1-3.29 3.29 3.286 3.286 0 0 1-3.088-2.193h4.185V41.677H37.29v15.355H24.13V15.355h37.29v47.161zm2.194-18.645v-30.71H21.935v3.512a11.966 11.966 0 0 0-5.483-1.318c-6.652 0-12.065 5.412-12.065 12.064S9.8 39.484 16.452 39.484c1.935 0 3.798-.454 5.483-1.318v5.705H2.194V10.968h63.612V43.87h-2.193z"></path><path fill="#002060" d="M5 5h2v2H5zM9 5h2v2H9zM14 5h2v2h-2z"></path><path fill="#008D6A" d="M59 18H26v22h33V18zm-2.2 4.4h-11v-2.2h11v2.2zm-13.2 2.2v13.2H37V24.6h6.6zM37 22.4v-2.2h6.6v2.2H37zm8.8 2.2h4.4v13.2h-4.4V24.6zm-11-4.4v2.2h-6.6v-2.2h6.6zm-6.6 4.4h6.6v13.2h-6.6V24.6zm24.2 13.2V24.6h4.4v13.2h-4.4zM26 42h9v2h-9zM26 47h9v2h-9zM26 50h9v2h-9z"></path></g></svg> 