<?xml version="1.0" encoding="UTF-8"?> <svg xmlns="http://www.w3.org/2000/svg" width="210" height="51" viewBox="0 0 210 51"><g fill="none" fill-rule="evenodd"><path fill="#0653A0" fill-rule="nonzero" d="M0 16.13v19.6h2.103v-9.059h8.836v-1.575H2.103V17.8h9.96v-1.67H0zm14.928 5.035v14.566h1.984V21.165h-1.984zM21.1 35.731h1.984v-8.387c0-.673.082-1.297.245-1.87a5.076 5.076 0 0 1 .747-1.57c.335-.47.798-.84 1.389-1.11.59-.269 1.279-.404 2.063-.404 1.094 0 1.865.366 2.315 1.098.45.73.675 1.77.675 3.116v9.127h1.984v-8.777c0-2.028-.38-3.552-1.138-4.57-.758-1.019-1.93-1.528-3.518-1.528-2.425 0-4.052 1.027-4.88 3.082l-.226-2.773H21.1v14.566zm19.544-1.266c-.89 0-1.6-.206-2.13-.619-.528-.413-.793-1.081-.793-2.006 0-.95.307-1.65.92-2.1.572-.418 1.576-.642 3.012-.67l.38-.003 2.884.027v3.204c-1.085 1.445-2.509 2.167-4.273 2.167zm-4.854-2.638c0 1.355.417 2.39 1.25 3.103.833.713 1.956 1.07 3.366 1.07 1.94 0 3.497-.74 4.67-2.221l.145 1.952h1.667v-9.639c0-3.49-1.786-5.236-5.357-5.236-.953 0-1.894.112-2.824.336-.93.225-1.709.548-2.335.97l.635 1.588a7.005 7.005 0 0 1 2.183-1.003 8.9 8.9 0 0 1 2.367-.343c1.129 0 1.97.287 2.526.861.556.575.834 1.463.834 2.666v1.79l-3.082-.04h-.159c-2.063 0-3.56.352-4.49 1.056-.93.705-1.396 1.735-1.396 3.09zm15.18 3.904h1.984v-8.387c0-.673.081-1.297.244-1.87a5.076 5.076 0 0 1 .748-1.57c.335-.47.798-.84 1.389-1.11.59-.269 1.278-.404 2.063-.404 1.093 0 1.865.366 2.315 1.098.45.73.674 1.77.674 3.116v9.127h1.984v-8.777c0-2.028-.379-3.552-1.137-4.57-.759-1.019-1.931-1.528-3.519-1.528-2.425 0-4.051 1.027-4.88 3.082l-.225-2.773h-1.64v14.566zm24.769-3.54c-.741 1.516-1.945 2.274-3.611 2.274-1.438 0-2.533-.53-3.287-1.588-.754-1.06-1.131-2.544-1.131-4.456 0-1.902.377-3.383 1.13-4.442.755-1.06 1.85-1.589 3.288-1.589 1.666 0 2.874.768 3.624 2.302h.185l1.217-.7a4.459 4.459 0 0 0-.615-1.144 5.12 5.12 0 0 0-.992-.99c-.401-.309-.902-.554-1.501-.733a6.95 6.95 0 0 0-1.998-.27c-1.948 0-3.498.68-4.649 2.04-1.15 1.36-1.726 3.202-1.726 5.526 0 2.325.575 4.169 1.726 5.533C68.55 35.318 70.1 36 72.05 36c1.401 0 2.526-.303 3.372-.909.847-.605 1.424-1.353 1.733-2.241l-1.217-.66h-.198zm4.77-11.026v14.566h1.984V21.165h-1.984zm10.285 13.3c-.89 0-1.6-.206-2.13-.619-.529-.413-.793-1.081-.793-2.006 0-.95.306-1.65.92-2.1.571-.418 1.575-.642 3.011-.67l.38-.003 2.884.027v3.204c-1.084 1.445-2.508 2.167-4.272 2.167zm-4.854-2.638c0 1.355.416 2.39 1.25 3.103.833.713 1.955 1.07 3.366 1.07 1.94 0 3.496-.74 4.67-2.221l.145 1.952h1.666v-9.639c0-3.49-1.785-5.236-5.357-5.236-.952 0-1.893.112-2.824.336-.93.225-1.708.548-2.334.97l.635 1.588a7.005 7.005 0 0 1 2.182-1.003 8.9 8.9 0 0 1 2.368-.343c1.128 0 1.97.287 2.526.861.556.575.833 1.463.833 2.666v1.79l-3.082-.04h-.158c-2.064 0-3.56.352-4.49 1.056-.931.705-1.396 1.735-1.396 3.09zM103.156 15v16.746c0 1.068.12 1.752.357 2.053.238.3.776.473 1.614.518l.873.027-.145 1.481-.175.008c-.174.004-.478.005-.91.005-.59 0-1.087-.051-1.488-.154a2.866 2.866 0 0 1-1.111-.572c-.34-.279-.591-.691-.754-1.239-.163-.547-.245-1.238-.245-2.073V15h1.984zM17 17v2h-2v-2h2zm65-1v2h-2v-2h2z"></path><path fill="#008D6A" d="M116.87 9.405l19.688-8.006A2.5 2.5 0 0 1 140 3.715v43.501a2.5 2.5 0 0 1-3.48 2.3l-19.697-8.4a3 3 0 0 1-1.823-2.76V12.184a3 3 0 0 1 1.87-2.779z"></path><path fill="#FFF" fill-rule="nonzero" d="M132.475 17L126 36h4.222l1.67-5.076h6.151L139.778 36H144l-6.436-19h-5.09zm.233 11.288l2.305-7.79 2.28 7.79h-4.585z"></path><path fill="#0653A0" fill-rule="nonzero" d="M152.987 31.285a2.946 2.946 0 0 1-1.036 1.396c-.472.343-1.03.514-1.677.514-.961 0-1.743-.4-2.346-1.202-.603-.802-.905-1.968-.905-3.5 0-1.522.302-2.684.905-3.486.56-.744 1.274-1.143 2.142-1.196l.23-.006c.646 0 1.201.171 1.664.514.463.343.804.813 1.023 1.41h.17l2.438-1.363c-.97-2.244-2.796-3.366-5.479-3.366-2.184 0-3.916.672-5.196 2.017-1.28 1.345-1.92 3.17-1.92 5.476 0 2.307.64 4.134 1.92 5.483 1.28 1.35 3.012 2.024 5.196 2.024 2.691 0 4.517-1.122 5.479-3.366l-2.451-1.349h-.157zm14.09 0a2.946 2.946 0 0 1-1.036 1.396c-.472.343-1.031.514-1.678.514-.96 0-1.743-.4-2.346-1.202-.603-.802-.904-1.968-.904-3.5 0-1.522.301-2.684.904-3.486.56-.744 1.274-1.143 2.143-1.196l.23-.006c.646 0 1.2.171 1.664.514.463.343.804.813 1.022 1.41h.17l2.438-1.363c-.97-2.244-2.796-3.366-5.478-3.366-2.184 0-3.916.672-5.196 2.017-1.28 1.345-1.92 3.17-1.92 5.476 0 2.307.64 4.134 1.92 5.483 1.28 1.35 3.012 2.024 5.196 2.024 2.691 0 4.517-1.122 5.478-3.366l-2.45-1.349h-.158zm8.165-3.9c.078-1.238.39-2.17.937-2.799.546-.627 1.26-.941 2.143-.941.847 0 1.478.305 1.893.915.415.61.627 1.551.636 2.825h-5.61zM178.57 36c1.11 0 2.142-.154 3.1-.46.956-.308 1.723-.715 2.3-1.223l-.879-2.19h-.21c-1.258.8-2.542 1.202-3.853 1.202-1.066 0-1.944-.317-2.634-.949-.69-.632-1.088-1.55-1.192-2.751h8.859a9.151 9.151 0 0 0 .144-1.697c-.026-2.155-.537-3.849-1.533-5.082-.996-1.233-2.512-1.85-4.548-1.85-2.08 0-3.757.675-5.032 2.024-1.276 1.349-1.914 3.176-1.914 5.483 0 2.297.675 4.12 2.025 5.47 1.35 1.348 3.139 2.023 5.367 2.023zm15.02-4.288c0 .481-.153.864-.459 1.15-.306.284-.751.427-1.337.427-1.572 0-2.83-.588-3.774-1.764h-.328l-1.874 1.804c1.363 1.78 3.412 2.671 6.147 2.671.978 0 1.867-.158 2.667-.474a4.504 4.504 0 0 0 1.972-1.496c.516-.681.773-1.49.773-2.424 0-.49-.037-.904-.111-1.243a3.248 3.248 0 0 0-.465-1.055c-.236-.365-.594-.708-1.075-1.028-.48-.321-1.1-.637-1.861-.949l-1.848-.761c-.62-.24-1.035-.472-1.245-.695a1.128 1.128 0 0 1-.315-.801c0-.419.153-.74.46-.962.305-.222.737-.334 1.297-.334.559 0 1.1.114 1.625.34.524.228.96.564 1.31 1.01h.17l1.81-1.67c-.997-1.639-2.801-2.458-5.413-2.458-1.66 0-2.978.374-3.952 1.122-.974.748-1.461 1.768-1.461 3.059 0 1.024.288 1.863.865 2.518.577.654 1.573 1.24 2.988 1.756l1.481.534c.778.276 1.297.544 1.56.802.262.258.393.565.393.921zm12.621 0a1.25 1.25 0 0 0-.393-.921c-.236-.233-.68-.472-1.334-.72l-1.706-.616c-1.416-.516-2.412-1.102-2.988-1.756-.577-.655-.865-1.494-.865-2.518 0-1.291.487-2.311 1.461-3.059.974-.748 2.291-1.122 3.951-1.122 2.613 0 4.417.82 5.413 2.458l-1.809 1.67h-.17a3.314 3.314 0 0 0-1.31-1.01 4.049 4.049 0 0 0-1.626-.34c-.559 0-.991.112-1.297.334-.306.223-.459.543-.459.962 0 .312.105.579.315.801.21.223.624.454 1.245.695l1.848.761c.76.312 1.38.628 1.86.949.481.32.84.663 1.075 1.028.236.365.391.717.466 1.055.074.339.111.753.111 1.243 0 .935-.258 1.743-.773 2.424a4.504 4.504 0 0 1-1.973 1.496c-.8.316-1.688.474-2.667.474-2.734 0-4.783-.89-6.146-2.671l1.874-1.804h.328c.943 1.176 2.201 1.764 3.774 1.764.585 0 1.031-.143 1.337-.428.306-.285.458-.668.458-1.149z"></path></g></svg> 