<?xml version="1.0" encoding="UTF-8"?> <svg xmlns="http://www.w3.org/2000/svg" width="69" height="69" viewBox="0 0 69 69"><g fill="none" fill-rule="nonzero"><path fill="#008D6A" d="M34.5 20.444c1.24 0 2.25.997 2.25 2.223H39c0-2.065-1.439-3.79-3.375-4.287V16h-2.25v2.38C31.439 18.877 30 20.602 30 22.667c0 2.45 2.018 4.444 4.5 4.444 1.24 0 2.25.997 2.25 2.222 0 1.226-1.01 2.223-2.25 2.223s-2.25-.997-2.25-2.223H30c0 2.065 1.439 3.79 3.375 4.287V36h2.25v-2.38C37.561 33.123 39 31.398 39 29.333c0-2.45-2.018-4.444-4.5-4.444-1.24 0-2.25-.997-2.25-2.222 0-1.226 1.01-2.223 2.25-2.223z"></path><path fill="#002060" d="M69 28.935v-8.903h-6.677V0H17.31L6.677 11.815v8.217H0v8.903h6.677v3.774l-4.256-1.548H0v24.484h9.721l.583-1.868 4.703 2.822 3.119.812c-.204.447-.32.932-.32 1.438a3.47 3.47 0 0 0 3.352 3.461 3.47 3.47 0 0 0 3.46 3.351c.397 0 .784-.081 1.154-.212.444 1.408 1.746 2.438 3.298 2.438.741 0 1.461-.253 2.054-.689l.824.824c.63.63 1.469.978 2.36.978h.192c1.441 0 2.66-.923 3.126-2.204.628.678 1.506 1.091 2.439 1.091a3.336 3.336 0 0 0 3.215-2.486c.39.157.805.26 1.236.26a3.336 3.336 0 0 0 3.215-2.486c.391.157.806.26 1.237.26a3.343 3.343 0 0 0 3.338-3.338v-.37a3.35 3.35 0 0 0-.668-2.004l-.369-.491 4.132-3.306.54 1.72H69V31.16h-2.226l-4.451 1.26v-3.486H69zM17.806 2.777v8.352H10.29l7.517-8.352zM8.903 13.355h11.13V2.225h40.064v17.807h-6.678v-4.306l-13.135 8.758 13.135 8.757v-4.306h6.678v4.116l-10.305 2.917.963 3.084-13.875.924a7.754 7.754 0 0 0-2.966.805l-2.382 1.19a7.781 7.781 0 0 0-3.4-.794h-7.837L15.06 38.56l.786-2.516-6.943-2.525v-4.584h6.678v4.306l13.135-8.757-13.135-8.758v4.306H8.903v-6.677zM2.226 26.71v-4.452h15.58v-2.371l6.897 4.597-6.897 4.597V26.71H2.226zm5.86 26.71h-5.86V33.457l10.863 3.95-5.004 16.011zm7.926 1.186l-5.023-3.014 3.4-10.88 5.38 2.691h8.365c1.044 0 2.063.293 2.948.846l6.052 3.782c.441.275.705.752.705 1.273v.388a1.503 1.503 0 0 1-2.274 1.288l-4.18-2.507c-1.667-.999-3.918-.72-5.293.652l-6.402 6.401-3.678-.92zm19.6 11.055c0 .613-.498 1.113-1.112 1.113h-.191a1.12 1.12 0 0 1-.787-.326l-.922-.921c-.21-.21-.326-.491-.326-.788v-.19c0-.614.499-1.114 1.113-1.114h.191c.293 0 .58.12.787.327l.922.921c.21.21.326.49.326.788v.19zm5.565-1.113a1.114 1.114 0 0 1-2.003.668l-2.225-2.968a1.117 1.117 0 0 1-.223-.668v-.37a1.114 1.114 0 0 1 2.003-.668l2.226 2.968c.144.191.222.429.222.668v.37zm4.452-2.225a1.114 1.114 0 0 1-2.003.667L41.4 60.022a1.117 1.117 0 0 1-.223-.668v-.37a1.114 1.114 0 0 1 2.003-.668l2.226 2.968c.144.191.223.429.223.668v.37zm4.452-2.226a1.114 1.114 0 0 1-2.003.668l-2.226-2.968a1.117 1.117 0 0 1-.223-.668v-.37a1.114 1.114 0 0 1 2.003-.669l2.226 2.968c.144.192.223.43.223.668v.37zm-.147-4.646l-.521-.696a3.354 3.354 0 0 0-2.671-1.336 3.336 3.336 0 0 0-3.215 2.486 3.315 3.315 0 0 0-1.237-.26 3.336 3.336 0 0 0-3.215 2.486 3.315 3.315 0 0 0-1.236-.26A3.343 3.343 0 0 0 34.5 61.21v.144a3.33 3.33 0 0 0-.922-.144h-.19a3.343 3.343 0 0 0-3.34 3.338v.19c0 .143.024.281.042.421l-.137.137a1.25 1.25 0 0 1-1.765-1.765l4.873-4.873-1.574-1.574-5.986 5.986a1.25 1.25 0 0 1-1.765-1.765l5.986-5.986-1.573-1.574-5.987 5.987a1.25 1.25 0 0 1-1.765-1.765l7.269-7.268a2.146 2.146 0 0 1 2.574-.318l4.178 2.507a3.732 3.732 0 0 0 5.646-3.196v-.388a3.705 3.705 0 0 0-1.751-3.16l-4.509-2.817 1.105-.552a5.52 5.52 0 0 1 2.117-.576l14.412-.96 3.251 10.408-4.755 3.804zm16.84-22.02V53.42h-9.198l-4.98-15.936 14.178-4.051zm-15.58-6.721v2.371l-6.897-4.597 6.897-4.597v2.371h15.58v4.452h-15.58z"></path><path fill="#008D6A" d="M22 5h36v2H22zM22 9h36v2H22z"></path></g></svg> 