<?xml version="1.0" encoding="UTF-8"?> <svg xmlns="http://www.w3.org/2000/svg" width="72" height="72" viewBox="0 0 72 72"><g fill="none" fill-rule="nonzero"><path fill="#90D2C2" d="M20.845 13.896c-6.396 0-11.58 5.185-11.58 11.581s5.184 11.58 11.58 11.58 11.58-5.184 11.58-11.58h-11.58v-11.58z"></path><path fill="#90D2C2" d="M24.319 10.423v11.58h11.58c0-6.396-5.184-11.58-11.58-11.58z"></path><path fill="#002060" d="M71.8 6.948V0H0v6.948h3.474v41.69H0v6.948h20.13L12.86 70.123l2.072 1.037 7.786-15.574H34.74v15.055h2.317V55.586H49.08l7.787 15.573.59-.296a4.58 4.58 0 0 0 2.762.936c1.39 0 2.624-.628 3.474-1.6.85.972 2.084 1.6 3.474 1.6a4.637 4.637 0 0 0 4.632-4.632V33.865c0-3.58-2.153-6.664-5.243-7.854 2.406-1.094 4.085-3.515 4.085-6.324 0-2.051-.899-3.891-2.316-5.165V6.948h3.474zM2.315 4.632V2.316h67.167v2.316H2.316zm0 46.322h53.27v2.316H2.316v-2.316zm53.27 4.632v7.833l-3.916-7.833h3.916zm13.897-21.721v33.302a2.319 2.319 0 0 1-2.316 2.316 2.319 2.319 0 0 1-2.317-2.316V50.954h-2.316v16.213a2.319 2.319 0 0 1-2.316 2.316 2.319 2.319 0 0 1-2.316-2.316V34.503l-6.533 2.903a2.107 2.107 0 0 1-2.337-.434l-5.945-5.946a1.299 1.299 0 0 1 1.837-1.837l5.874 5.876.787-.511c3.592-2.335 9.037-5.87 9.287-6.025a5.77 5.77 0 0 1 3.504-.696c2.864.326 5.107 2.976 5.107 6.032zm-5.79-9.546a4.637 4.637 0 0 1-4.632-4.632 4.637 4.637 0 0 1 4.632-4.632 4.637 4.637 0 0 1 4.632 4.632 4.637 4.637 0 0 1-4.632 4.632zm2.316-11.175a6.918 6.918 0 0 0-2.317-.405 6.955 6.955 0 0 0-6.948 6.948c0 2.807 1.677 5.225 4.078 6.32a8.06 8.06 0 0 0-1.084.503c-.125.07-3.027 1.952-8.629 5.593l-4.547-4.548a3.617 3.617 0 0 0-3.947-.777l-5.744-8.876-1.945 1.258 5.942 9.184a3.577 3.577 0 0 0-.478 1.767 3.59 3.59 0 0 0 1.06 2.556l5.945 5.945a4.438 4.438 0 0 0 4.916.914l3.275-1.458v10.57H5.79V6.949H66.01v6.196z"></path><path fill="#002060" d="M26.635 39.374h18.529v2.316H26.635zM30.109 44.006h15.055v2.316H30.109zM37.058 10.423h2.316v2.316h-2.316zM41.69 10.423h2.316v2.316H41.69zM46.322 10.423h2.316v2.316h-2.316zM50.954 10.423h2.316v2.316h-2.316z"></path></g></svg> 