<?xml version="1.0" encoding="UTF-8"?> <svg xmlns="http://www.w3.org/2000/svg" width="72" height="72" viewBox="0 0 72 72"><g fill="none" fill-rule="nonzero"><path fill="#002060" d="M64.181 55.763l-1.803-1.595a5.833 5.833 0 0 0 .332-1.91V17.42a5.78 5.78 0 0 0-1.807-4.19l2.989-3.228-1.705-1.578-3.3 3.563a5.721 5.721 0 0 0-1.984-.373H5.806A5.813 5.813 0 0 0 0 17.419v34.84a5.813 5.813 0 0 0 5.806 5.806h19.742v2.322H14.516l-4.064 5.42V72h41.806v-6.193l-4.064-5.42H37.16v-2.322h13.216c2.084 2.362 4.136 4.691 5.388 6.111a5.951 5.951 0 0 0 4.469 2.018 5.968 5.968 0 0 0 5.96-5.967 5.962 5.962 0 0 0-2.013-4.464zM15.677 62.71h9.871v2.322H13.935l1.742-2.322zm-2.903 6.967v-2.322h37.161v2.322h-37.16zm34.258-6.967l1.742 2.322H37.161V62.71h9.871zM34.84 65.032H27.87v-6.967h6.968v6.967zm25.395-1.161a3.636 3.636 0 0 1-2.727-1.229c-2.768-3.144-9.456-10.736-11.763-13.301l-1.726 1.554a954.224 954.224 0 0 1 4.307 4.847H5.806a3.488 3.488 0 0 1-3.483-3.484V17.42a3.488 3.488 0 0 1 3.483-3.484h51.097a3.488 3.488 0 0 1 3.484 3.484v34.84c0 .046-.015.09-.017.135l-4.152-3.67a2.326 2.326 0 0 0 1.847-2.272V18.58a2.325 2.325 0 0 0-2.323-2.323H6.968a2.325 2.325 0 0 0-2.323 2.323v27.87a2.325 2.325 0 0 0 2.323 2.323h19.304v-2.322H6.968V18.58h45.815l-6.218 6.715 1.705 1.577 7.472-8.07v27.649h-2.094l-2.76-2.441-1.538 1.74 13.293 11.751a3.641 3.641 0 0 1-2.41 6.369z"></path><path fill="#002060" d="M17.42 36h4.645v2.323h-4.646z"></path><path fill="#90D2C2" d="M37.161 53.42c-8.965 0-16.258-7.294-16.258-16.259s7.293-16.258 16.258-16.258S53.42 28.196 53.42 37.161 46.126 53.42 37.161 53.42zm0-26.71c-5.763 0-10.451 4.688-10.451 10.451 0 5.764 4.688 10.452 10.451 10.452 5.764 0 10.452-4.688 10.452-10.452 0-5.763-4.688-10.451-10.452-10.451z"></path><path fill="#002060" d="M37.161 25.548c-6.403 0-11.613 5.21-11.613 11.613 0 6.404 5.21 11.613 11.613 11.613 6.404 0 11.613-5.21 11.613-11.613s-5.21-11.613-11.613-11.613zm0 20.904c-4.728 0-8.635-3.554-9.21-8.13h5.726V36h-5.726c.575-4.575 4.482-8.129 9.21-8.129 2.016 0 3.878.653 5.403 1.747l-3.89 4.201 1.704 1.578 3.894-4.205a9.253 9.253 0 0 1 2.18 5.97c0 5.122-4.168 9.29-9.29 9.29z"></path><g fill="#90D2C2"><path d="M37.161 32.516a4.65 4.65 0 0 0-4.645 4.645 4.65 4.65 0 0 0 4.645 4.645 4.65 4.65 0 0 0 4.645-4.645 4.65 4.65 0 0 0-4.645-4.645zM13.935 32.516a4.65 4.65 0 0 0-4.645 4.645 4.65 4.65 0 0 0 4.645 4.645 4.65 4.65 0 0 0 4.646-4.645 4.65 4.65 0 0 0-4.646-4.645zM66.194 0a5.813 5.813 0 0 0-5.807 5.806 5.813 5.813 0 0 0 5.807 5.807A5.813 5.813 0 0 0 72 5.806 5.813 5.813 0 0 0 66.194 0z"></path></g><path fill="#002060" d="M57.243 58.886l-1.56-1.56 1.643-1.642 1.56 1.56-1.643 1.642zm-3.201-3.202L52.4 54.042l1.642-1.642 1.642 1.642-1.642 1.642zm-3.285-3.285l-1.643-1.642 1.643-1.643 1.642 1.643-1.642 1.642zM9.29 20.903h11.613v2.323H9.29zM20.903 27.871h-2.322v-2.323h2.322v2.323zm-4.645 0h-2.323v-2.323h2.323v2.323zm-4.645 0H9.29v-2.323h2.323v2.323z"></path></g></svg> 