<?xml version="1.0" encoding="UTF-8"?> <svg xmlns="http://www.w3.org/2000/svg" width="69" height="68" viewBox="0 0 69 68"><g fill="none" fill-rule="nonzero"><path fill="#002060" d="M41.931 60.176v5.589H32V53.47h-2.207v12.294h-8.827V49.856l5.188 3.153 1.3-6.59 5.786 1.353c2.518.589 4.277 2.828 4.277 5.445v6.96h2.207v-6.96c0-3.664-2.462-6.799-5.987-7.623L25.38 43.64v-2.202a8.98 8.98 0 0 0 2.68-3.666 5.488 5.488 0 0 0 3.611-1.78c.922-1.026 1.4-2.373 1.404-3.758h.03V21.24c0-2.526-1.547-4.768-3.87-5.643l-2.24-1.814A12.484 12.484 0 0 0 19.16 11c-6.914 0-12.54 5.698-12.54 12.7v8.535h.031c.004 1.385.483 2.732 1.405 3.759.936 1.043 2.235 1.658 3.611 1.78a8.955 8.955 0 0 0 2.679 3.665v2.202l-8.358 1.954C2.462 46.418 0 49.553 0 53.217V68h41.931c1.217 0 2.207-1.002 2.207-2.235v-5.589H64v-2.235H44.138c-1.217 0-2.207 1.003-2.207 2.235zm-26.734-14.44l2.69 2.044-2.72 1.653-.585-3.553.615-.145zm9.408 3.726l-2.768-1.682 2.69-2.045.777.182-.7 3.545zm5.431-14.971a3.305 3.305 0 0 1-1.394.903 9.18 9.18 0 0 0 .048-.923v-5.349c1.187.457 2.07 1.515 2.19 2.78.09.961-.209 1.88-.844 2.589zM19.16 13.235c2.337 0 4.63.815 6.455 2.293l2.539 2.057.186.064a3.777 3.777 0 0 1 2.557 3.591v6.608a5.765 5.765 0 0 0-2.813-1.16L25.38 23.95l-.78.79a6.347 6.347 0 0 1-4.548 1.908h-7.724c-1.31 0-2.523.464-3.5 1.213V23.7c0-5.77 4.636-10.465 10.333-10.465zM9.688 34.491a3.358 3.358 0 0 1-.845-2.588c.12-1.265 1.004-2.323 2.191-2.78v5.348c0 .311.017.619.048.923a3.291 3.291 0 0 1-1.394-.903zm3.553-.02v-5.589h6.81c1.935 0 3.773-.64 5.279-1.821l1.153 1.166v6.244c0 3.698-2.97 6.705-6.62 6.705-3.652 0-6.622-3.007-6.622-6.705zm6.621 8.94a8.67 8.67 0 0 0 3.31-.657v1.217l-3.31 2.514-3.31-2.514v-1.217a8.67 8.67 0 0 0 3.31.658zM2.207 53.218c0-2.617 1.76-4.856 4.277-5.445l5.944-1.39 1.095 6.656 5.236-3.182v15.909H9.93V53.47H7.724v12.294H2.207V53.217z"></path><path fill="#002060" d="M23 56h2v2h-2zM23 59h2v2h-2zM67 58h2v2h-2zM43 54h26v2H43zM42 50h22v2H42zM67 50h2v2h-2z"></path><path fill="#008D6A" d="M44.284 36.037c.324.186.525.545.525.937v4.34c0 3.688 3 6.686 6.692 6.686 3.69 0 6.692-2.998 6.692-6.686v-4.34c0-.392.205-.754.535-.944C63.214 33.448 66 28.64 66 23.485c0-3.98-1.583-7.69-4.457-10.447-2.872-2.757-6.636-4.184-10.643-4.026-7.528.303-13.763 6.678-13.898 14.208a14.491 14.491 0 0 0 7.282 12.817zm2.755 3.049h8.923v2.228h-8.923v-2.228zm1.116-11.143h-1.116c-.614 0-1.115-.501-1.115-1.115s.5-1.114 1.115-1.114 1.116.5 1.116 1.114v1.115zm4.46 8.914h-2.23v-6.686h2.23v6.686zm-1.114 8.914c-1.645 0-3.068-.902-3.841-2.228h7.68c-.772 1.326-2.195 2.228-3.84 2.228zm-.51-34.533a12.182 12.182 0 0 1 9.008 3.407 12.152 12.152 0 0 1 3.77 8.84c0 4.362-2.357 8.429-6.154 10.614a3.312 3.312 0 0 0-1.637 2.758h-1.131v-6.686h1.115c1.845 0 3.346-1.5 3.346-3.343a3.349 3.349 0 0 0-3.346-3.343 3.349 3.349 0 0 0-3.346 3.343v1.115h-2.23v-1.115a3.349 3.349 0 0 0-3.347-3.343 3.349 3.349 0 0 0-3.346 3.343 3.349 3.349 0 0 0 3.346 3.343h1.116v6.686h-1.132c-.04-1.141-.648-2.188-1.627-2.752a12.26 12.26 0 0 1-6.162-10.844c.114-6.372 5.388-11.765 11.757-12.023zm3.856 16.705v-1.115c0-.614.5-1.114 1.115-1.114.614 0 1.115.5 1.115 1.114 0 .614-.5 1.115-1.115 1.115h-1.115z"></path><path fill="#008D6A" d="M58.819 23H61c0-3.698-1.88-7.147-4.907-9L55 15.999c2.356 1.442 3.819 4.125 3.819 7.001zM54 12.384A11.841 11.841 0 0 0 51 12v2.702c.792 0 1.577.1 2.333.298L54 12.384zM51 0h2v7h-2zM34 7.5L35.5 6l4.5 4.5-1.5 1.5zM62 10.5L66.5 6 68 7.5 63.5 12z"></path></g></svg> 