<?xml version="1.0" encoding="UTF-8"?> <svg xmlns="http://www.w3.org/2000/svg" width="72" height="72" viewBox="0 0 72 72"><g fill="none" fill-rule="nonzero"><g fill="#90D2C2"><path d="M14.263 49.121h43.57l-2.157-6.983H16.438zM26.49 18.86l-.824 11.639 2.307 2.327L30.28 30.5l-.823-11.64zM52.198 8.384v4.656a2.317 2.317 0 0 0 2.307 2.328h4.614v3.491l5.768-3.491h3.46a2.317 2.317 0 0 0 2.307-2.328V8.384a2.317 2.317 0 0 0-2.307-2.328H54.505a2.317 2.317 0 0 0-2.307 2.328z"></path></g><path fill="#002060" d="M28.263 34.84l-8.78-.001a8.135 8.135 0 0 0-.997-12.446 10.321 10.321 0 0 1 6.893-2.651h11.535c3.18 0 5.767-2.605 5.767-5.807v-9.87c0-.96.776-1.742 1.73-1.742s1.73.781 1.73 1.742v11.544c0 3.861-2.728 7.214-6.49 7.971l-5.044 1.017v17.21h2.307V26.498l3.19-.642c4.835-.973 8.345-5.282 8.345-10.248V4.065C48.449 1.823 46.638 0 44.41 0c-2.226 0-4.037 1.823-4.037 4.065v9.87c0 1.921-1.552 3.484-3.46 3.484h-3.589a8.125 8.125 0 0 0 2.435-5.806c0-4.482-3.623-8.13-8.074-8.13s-8.074 3.648-8.074 8.13c0 2.464 1.099 4.672 2.824 6.164a12.645 12.645 0 0 0-6.133 3.515 7.978 7.978 0 0 0-2.459-.389c-4.451 0-8.074 3.648-8.074 8.13a8.135 8.135 0 0 0 3.275 6.521 12.116 12.116 0 0 0-7.632 8.464L.13 49.138a7.557 7.557 0 0 0 1.303 5.828c.204.285.433.547.677.796a2.313 2.313 0 0 0-2.108 2.303v2.322A2.317 2.317 0 0 0 2.31 62.71h4.614v6.967H4.616V72h11.535v-2.323h-2.307V62.71h.943l1.466 5.618c.453 2.127 2.35 3.672 4.51 3.672a4.591 4.591 0 0 0 3.876-2.123c.67-1.04.896-2.284.624-3.55l-2.666-10.209c-.794-3.724-3.814-6.561-7.456-7.203l1.857-5.947h11.255c2.232 0 4.047-1.823 4.047-4.065 0-2.241-1.811-4.063-4.037-4.063zm-6.344-23.227c0-3.202 2.587-5.807 5.767-5.807s5.767 2.605 5.767 5.807c0 3.202-2.587 5.806-5.767 5.806s-5.767-2.604-5.767-5.806zM8.077 29.033c0-3.202 2.587-5.807 5.767-5.807s5.768 2.605 5.768 5.806c0 3.202-2.588 5.807-5.768 5.807-3.18 0-5.767-2.605-5.767-5.807zm3.46 40.644H9.23V62.71h2.307v6.967zm-9.228-9.29v-2.322h5.42l5.86.053.592 2.27H2.309zm25.944-19.742H15.305l-3.26 10.447 1.563.008c3.225.017 6.058 2.332 6.748 5.557l2.665 10.21c.13.606.018 1.229-.317 1.749a2.29 2.29 0 0 1-1.453 1.01c-1.243.263-2.477-.555-2.754-1.837l-2.665-10.212a2.328 2.328 0 0 0-2.257-1.835H7.73c-1.814 0-3.469-.798-4.425-2.135-.85-1.185-1.172-2.62-.923-3.97l1.269-5.05c1.097-4.372 4.992-7.426 9.472-7.426l15.14.001c.954 0 1.73.782 1.73 1.741 0 .96-.781 1.742-1.74 1.742z"></path><path fill="#002060" d="M69.892 55.749c.243-.25.473-.513.678-.796 1.222-1.71 1.684-3.78 1.287-5.902l-1.269-5.056a12.119 12.119 0 0 0-7.632-8.47 8.146 8.146 0 0 0 3.276-6.53c0-4.484-3.623-8.135-8.074-8.135-4.452 0-8.075 3.65-8.075 8.136 0 2.275.935 4.334 2.435 5.811l-8.78.001c-2.226 0-4.037 1.824-4.037 4.067 0 2.243 1.814 4.068 4.047 4.068h11.256l1.856 5.952c-3.643.643-6.66 3.476-7.444 7.159l-2.69 10.318a4.644 4.644 0 0 0 .636 3.503A4.593 4.593 0 0 0 51.237 72c2.161 0 4.059-1.546 4.498-3.624l1.48-5.674h2.096v6.973h-2.307V72h11.535v-2.325h-2.307v-6.973h3.46A2.318 2.318 0 0 0 72 60.377v-2.324c0-1.213-.93-2.2-2.108-2.304zM52.39 28.996c0-3.205 2.587-5.812 5.768-5.812 3.18 0 5.767 2.607 5.767 5.812 0 3.204-2.587 5.811-5.767 5.811S52.39 32.2 52.39 28.996zm1.103 38.84c-.262 1.226-1.537 2.043-2.735 1.79a2.297 2.297 0 0 1-1.46-1.013 2.301 2.301 0 0 1-.33-1.7l2.69-10.32c.678-3.177 3.51-5.495 6.736-5.51l1.563-.009-3.26-10.455h-12.95a1.744 1.744 0 0 1-.009-3.486l13.266-.001h1.875c4.48 0 8.375 3.056 9.472 7.432l1.254 4.985a5.248 5.248 0 0 1-.908 4.044c-.956 1.337-2.611 2.135-4.425 2.135h-5.846c-1.08 0-2.028.773-2.243 1.788l-2.69 10.32zm10.432 1.84h-2.307v-6.974h2.307v6.973zm5.768-9.299H57.82l.605-2.324h11.266v2.324zM38.692 69.645h-4.71V48.449h-2.356V72h9.42V48.449h-2.354zM55.85 9.42h2.02v2.02h-2.02zM60.56 9.42h2.02v2.02h-2.02zM65.271 9.42h2.019v2.02H65.27z"></path></g></svg> 